{"accessors":[{"name":"Fir-tree_Cylinder.002-Mesh_positions","componentType":5126,"count":1744,"min":[-1.8857380151748657,0.00008299999899463728,-1.8853750228881836],"max":[1.885817050933838,5.713222980499268,1.884922981262207],"type":"VEC3","bufferView":0,"byteOffset":0},{"name":"Fir-tree_Cylinder.002-Mesh_normals","componentType":5126,"count":1744,"min":[-0.9542999863624573,0.018699999898672104,-0.9721999764442444],"max":[0.9557999968528748,0.7684000134468079,0.97079998254776],"type":"VEC3","bufferView":0,"byteOffset":20928},{"name":"Fir-tree_Cylinder.002-Mesh_0_indices","componentType":5123,"count":48,"min":[0],"max":[31],"type":"SCALAR","bufferView":1,"byteOffset":0},{"name":"Fir-tree_Cylinder.002-Mesh_1_indices","componentType":5123,"count":2544,"min":[32],"max":[1743],"type":"SCALAR","bufferView":1,"byteOffset":96}],"asset":{"generator":"obj2gltf","version":"2.0"},"buffers":[{"name":"Fir_Tree","byteLength":47040,"uri":"data:application/octet-stream;base64,"}],"bufferViews":[{"name":"bufferView_0","buffer":0,"byteLength":41856,"byteOffset":0,"byteStride":12,"target":34962},{"name":"bufferView_1","buffer":0,"byteLength":5184,"byteOffset":41856,"target":34963}],"materials":[{"name":"Trunk.001","pbrMetallicRoughness":{"baseColorFactor":[0.161521,0.111614,0.052047,1],"metallicFactor":0,"roughnessFactor":0.903921569},"emissiveFactor":[0,0,0],"alphaMode":"OPAQUE","doubleSided":false},{"name":"Green_2","pbrMetallicRoughness":{"baseColorFactor":[0.185243,0.350834,0.074614,1],"metallicFactor":0,"roughnessFactor":0.903921569},"emissiveFactor":[0,0,0],"alphaMode":"OPAQUE","doubleSided":false}],"meshes":[{"name":"Fir-tree_Cylinder.002-Mesh","primitives":[{"attributes":{"POSITION":0,"NORMAL":1},"indices":2,"material":0,"mode":4},{"attributes":{"POSITION":0,"NORMAL":1},"indices":3,"material":1,"mode":4}]}],"nodes":[{"name":"Fir-tree_Cylinder.002","mesh":0}],"scene":0,"scenes":[{"nodes":[0]}]}
