{"accessors":[{"name":"horse_1_positions","componentType":5126,"count":2978,"min":[-34.453590393066406,-2.9048569202423096,-147.61895751953125],"max":[34.453590393066406,245.6736297607422,153.52975463867188],"type":"VEC3","bufferView":0,"byteOffset":0},{"name":"horse_1_normals","componentType":5126,"count":2978,"min":[-0.999737024307251,-0.9999970197677612,-0.9999229907989502],"max":[0.999737024307251,0.9999849796295166,0.9988790154457092],"type":"VEC3","bufferView":0,"byteOffset":35736},{"name":"horse_1_texcoords","componentType":5126,"count":2978,"min":[0.007205000147223473,0.009584999643266201],"max":[0.9974539875984192,0.9976879954338074],"type":"VEC2","bufferView":1,"byteOffset":0},{"name":"horse_1_0_indices","componentType":5123,"count":15336,"min":[0],"max":[2977],"type":"SCALAR","bufferView":2,"byteOffset":0}],"asset":{"generator":"obj2gltf","version":"2.0"},"buffers":[{"name":"input","byteLength":125968,"uri":"data:application/octet-stream;base64,"}],"bufferViews":[{"name":"bufferView_0","buffer":0,"byteLength":71472,"byteOffset":0,"byteStride":12,"target":34962},{"name":"bufferView_1","buffer":0,"byteLength":23824,"byteOffset":71472,"byteStride":8,"target":34962},{"name":"bufferView_2","buffer":0,"byteLength":30672,"byteOffset":95296,"target":34963}],"materials":[{"name":"default","pbrMetallicRoughness":{"baseColorFactor":[0.5,0.5,0.5,1],"metallicFactor":0,"roughnessFactor":1},"emissiveFactor":[0,0,0],"alphaMode":"OPAQUE","doubleSided":false}],"meshes":[{"name":"horse_1","primitives":[{"attributes":{"POSITION":0,"NORMAL":1,"TEXCOORD_0":2},"indices":3,"material":0,"mode":4}]}],"nodes":[{"name":"horse","mesh":0}],"scene":0,"scenes":[{"nodes":[0]}]}
