{"accessors":[{"name":"bird_1_positions","componentType":5126,"count":1226,"min":[-17.319799423217773,-0.009499999694526196,-7.19350004196167],"max":[-0.6270999908447266,9.809900283813477,7.0569000244140625],"type":"VEC3","bufferView":0,"byteOffset":0},{"name":"bird_1_normals","componentType":5126,"count":1226,"min":[-0.9986000061035156,-0.9689000248908997,-1],"max":[0.9986000061035156,0.992900013923645,0.9958000183105469],"type":"VEC3","bufferView":0,"byteOffset":24888},{"name":"bird_1_texcoords","componentType":5126,"count":1226,"min":[0,0],"max":[1,1],"type":"VEC2","bufferView":1,"byteOffset":0},{"name":"bird_1_0_indices","componentType":5123,"count":1842,"min":[0],"max":[1225],"type":"SCALAR","bufferView":2,"byteOffset":0},{"name":"bird_tri_1_positions","componentType":5126,"count":848,"min":[0.6952999830245972,-0.006800000090152025,-7.19350004196167],"max":[17.38800048828125,9.788200378417969,7.0569000244140625],"type":"VEC3","bufferView":0,"byteOffset":14712},{"name":"bird_tri_1_normals","componentType":5126,"count":848,"min":[-1,-0.9764999747276306,-0.9998999834060669],"max":[1,0.9926999807357788,0.9789999723434448],"type":"VEC3","bufferView":0,"byteOffset":39600},{"name":"bird_tri_1_0_indices","componentType":5123,"count":858,"min":[0],"max":[847],"type":"SCALAR","bufferView":2,"byteOffset":3684}],"asset":{"generator":"obj2gltf","version":"2.0"},"buffers":[{"name":"input","byteLength":64984,"uri":"data:application/octet-stream;base64,"}],"bufferViews":[{"name":"bufferView_0","buffer":0,"byteLength":49776,"byteOffset":0,"byteStride":12,"target":34962},{"name":"bufferView_1","buffer":0,"byteLength":9808,"byteOffset":49776,"byteStride":8,"target":34962},{"name":"bufferView_2","buffer":0,"byteLength":5400,"byteOffset":59584,"target":34963}],"materials":[{"name":"default","pbrMetallicRoughness":{"baseColorFactor":[0.5,0.5,0.5,1],"metallicFactor":0,"roughnessFactor":1},"emissiveFactor":[0,0,0],"alphaMode":"OPAQUE","doubleSided":false}],"meshes":[{"name":"bird_1","primitives":[{"attributes":{"POSITION":0,"NORMAL":1,"TEXCOORD_0":2},"indices":3,"material":0,"mode":4}]},{"name":"bird_tri_1","primitives":[{"attributes":{"POSITION":4,"NORMAL":5},"indices":6,"material":0,"mode":4}]}],"nodes":[{"name":"bird","mesh":0},{"name":"bird_tri","mesh":1}],"scene":0,"scenes":[{"nodes":[0,1]}]}
