{"accessors":[{"name":"Oak_Cylinder.004-Mesh_positions","componentType":5126,"count":4952,"min":[-2.0198559761047363,-0.009936000220477581,-1.3223960399627686],"max":[1.9364500045776367,5.304503917694092,1.5145059823989868],"type":"VEC3","bufferView":0,"byteOffset":0},{"name":"Oak_Cylinder.004-Mesh_normals","componentType":5126,"count":4952,"min":[-0.9998000264167786,-1,-0.9934999942779541],"max":[0.9933000206947327,0.9995999932289124,0.9951000213623047],"type":"VEC3","bufferView":0,"byteOffset":59424},{"name":"Oak_Cylinder.004-Mesh_0_indices","componentType":5123,"count":2640,"min":[0],"max":[2287],"type":"SCALAR","bufferView":1,"byteOffset":0},{"name":"Oak_Cylinder.004-Mesh_1_indices","componentType":5123,"count":2400,"min":[2288],"max":[4367],"type":"SCALAR","bufferView":1,"byteOffset":5280},{"name":"Oak_Cylinder.004-Mesh_2_indices","componentType":5123,"count":888,"min":[4368],"max":[4951],"type":"SCALAR","bufferView":1,"byteOffset":10080}],"asset":{"generator":"obj2gltf","version":"2.0"},"buffers":[{"name":"Oak_Tree","byteLength":130704,"uri":"data:application/octet-stream;base64,"}],"bufferViews":[{"name":"bufferView_0","buffer":0,"byteLength":118848,"byteOffset":0,"byteStride":12,"target":34962},{"name":"bufferView_1","buffer":0,"byteLength":11856,"byteOffset":118848,"target":34963}],"materials":[{"name":"Green","pbrMetallicRoughness":{"baseColorFactor":[0.246706,0.350834,0.105022,1],"metallicFactor":0,"roughnessFactor":0.903921569},"emissiveFactor":[0,0,0],"alphaMode":"OPAQUE","doubleSided":false},{"name":"Green_2","pbrMetallicRoughness":{"baseColorFactor":[0.185243,0.350834,0.074614,1],"metallicFactor":0,"roughnessFactor":0.903921569},"emissiveFactor":[0,0,0],"alphaMode":"OPAQUE","doubleSided":false},{"name":"Trunk","pbrMetallicRoughness":{"baseColorFactor":[0.161521,0.111614,0.052047,1],"metallicFactor":0,"roughnessFactor":0.903921569},"emissiveFactor":[0,0,0],"alphaMode":"OPAQUE","doubleSided":false}],"meshes":[{"name":"Oak_Cylinder.004-Mesh","primitives":[{"attributes":{"POSITION":0,"NORMAL":1},"indices":2,"material":0,"mode":4},{"attributes":{"POSITION":0,"NORMAL":1},"indices":3,"material":1,"mode":4},{"attributes":{"POSITION":0,"NORMAL":1},"indices":4,"material":2,"mode":4}]}],"nodes":[{"name":"Oak_Cylinder.004","mesh":0}],"scene":0,"scenes":[{"nodes":[0]}]}
