{
  "asset": {
    "version": "2.0",
    "generator": "THREE.GLTFExporter"
  },
  "scenes": [
    {
      "nodes": [
        0,
        1,
        2,
        3,
        4,
        5,
        6
      ]
    }
  ],
  "scene": 0,
  "nodes": [
    {
      "name": "stick_oculus-touch-controller-left007",
      "mesh": 0
    },
    {
      "name": "body_oculus-touch-controller-left006",
      "mesh": 1
    },
    {
      "name": "buttonTrigger_oculus-touch-controller-left005",
      "mesh": 2
    },
    {
      "name": "buttonHand_oculus-touch-controller-left004",
      "mesh": 3
    },
    {
      "name": "buttonMenu_oculus-touch-controller-left003",
      "mesh": 4
    },
    {
      "name": "buttonX_oculus-touch-controller-left002",
      "mesh": 5
    },
    {
      "name": "buttonY_oculus-touch-controller-left001",
      "mesh": 6
    }
  ],
  "bufferViews": [
    {
      "buffer": 0,
      "byteOffset": 0,
      "byteLength": 13296,
      "target": 34962,
      "byteStride": 12
    },
    {
      "buffer": 0,
      "byteOffset": 13296,
      "byteLength": 13296,
      "target": 34962,
      "byteStride": 12
    },
    {
      "buffer": 0,
      "byteOffset": 26592,
      "byteLength": 8864,
      "target": 34962,
      "byteStride": 8
    },
    {
      "buffer": 0,
      "byteOffset": 35456,
      "byteLength": 8448,
      "target": 34963
    },
    {
      "buffer": 0,
      "byteOffset": 43904,
      "byteLength": 70200,
      "target": 34962,
      "byteStride": 12
    },
    {
      "buffer": 0,
      "byteOffset": 114104,
      "byteLength": 70200,
      "target": 34962,
      "byteStride": 12
    },
    {
      "buffer": 0,
      "byteOffset": 184304,
      "byteLength": 46800,
      "target": 34962,
      "byteStride": 8
    },
    {
      "buffer": 0,
      "byteOffset": 231104,
      "byteLength": 53516,
      "target": 34963
    },
    {
      "buffer": 0,
      "byteOffset": 284620,
      "byteLength": 4176,
      "target": 34962,
      "byteStride": 12
    },
    {
      "buffer": 0,
      "byteOffset": 288796,
      "byteLength": 4176,
      "target": 34962,
      "byteStride": 12
    },
    {
      "buffer": 0,
      "byteOffset": 292972,
      "byteLength": 2784,
      "target": 34962,
      "byteStride": 8
    },
    {
      "buffer": 0,
      "byteOffset": 295756,
      "byteLength": 3912,
      "target": 34963
    },
    {
      "buffer": 0,
      "byteOffset": 299668,
      "byteLength": 4284,
      "target": 34962,
      "byteStride": 12
    },
    {
      "buffer": 0,
      "byteOffset": 303952,
      "byteLength": 4284,
      "target": 34962,
      "byteStride": 12
    },
    {
      "buffer": 0,
      "byteOffset": 308236,
      "byteLength": 2856,
      "target": 34962,
      "byteStride": 8
    },
    {
      "buffer": 0,
      "byteOffset": 311092,
      "byteLength": 3900,
      "target": 34963
    },
    {
      "buffer": 0,
      "byteOffset": 314992,
      "byteLength": 3468,
      "target": 34962,
      "byteStride": 12
    },
    {
      "buffer": 0,
      "byteOffset": 318460,
      "byteLength": 3468,
      "target": 34962,
      "byteStride": 12
    },
    {
      "buffer": 0,
      "byteOffset": 321928,
      "byteLength": 2312,
      "target": 34962,
      "byteStride": 8
    },
    {
      "buffer": 0,
      "byteOffset": 324240,
      "byteLength": 2112,
      "target": 34963
    },
    {
      "buffer": 0,
      "byteOffset": 326352,
      "byteLength": 3468,
      "target": 34962,
      "byteStride": 12
    },
    {
      "buffer": 0,
      "byteOffset": 329820,
      "byteLength": 3468,
      "target": 34962,
      "byteStride": 12
    },
    {
      "buffer": 0,
      "byteOffset": 333288,
      "byteLength": 2312,
      "target": 34962,
      "byteStride": 8
    },
    {
      "buffer": 0,
      "byteOffset": 335600,
      "byteLength": 2496,
      "target": 34963
    },
    {
      "buffer": 0,
      "byteOffset": 338096,
      "byteLength": 3516,
      "target": 34962,
      "byteStride": 12
    },
    {
      "buffer": 0,
      "byteOffset": 341612,
      "byteLength": 3516,
      "target": 34962,
      "byteStride": 12
    },
    {
      "buffer": 0,
      "byteOffset": 345128,
      "byteLength": 2344,
      "target": 34962,
      "byteStride": 8
    },
    {
      "buffer": 0,
      "byteOffset": 347472,
      "byteLength": 2508,
      "target": 34963
    }
  ],
  "buffers": [
    {
      "byteLength": 349980,
      "uri": "data:application/octet-stream;base64,"
    }
  ],
  "accessors": [
    {
      "bufferView": 0,
      "componentType": 5126,
      "count": 1108,
      "max": [
        0.006045999936759472,
        0.002686999971047044,
        0.05546100065112114
      ],
      "min": [
        -0.00902200024574995,
        -0.014821999706327915,
        0.037723999470472336
      ],
      "type": "VEC3"
    },
    {
      "bufferView": 1,
      "componentType": 5126,
      "count": 1108,
      "max": [
        1,
        1,
        0.9111999869346619
      ],
      "min": [
        -1,
        -0.8138999938964844,
        -1
      ],
      "type": "VEC3"
    },
    {
      "bufferView": 2,
      "componentType": 5126,
      "count": 1108,
      "max": [
        0.6990000009536743,
        0.7524999976158142
      ],
      "min": [
        0.3215000033378601,
        0.01119999960064888
      ],
      "type": "VEC2"
    },
    {
      "bufferView": 3,
      "componentType": 5123,
      "count": 4224,
      "max": [
        1107
      ],
      "min": [
        0
      ],
      "type": "SCALAR"
    },
    {
      "bufferView": 4,
      "componentType": 5126,
      "count": 5850,
      "max": [
        0.044780001044273376,
        0.013945000246167183,
        0.13857899606227875
      ],
      "min": [
        -0.06481499969959259,
        -0.08010700345039368,
        0.023972999304533005
      ],
      "type": "VEC3"
    },
    {
      "bufferView": 5,
      "componentType": 5126,
      "count": 5850,
      "max": [
        1,
        0.9993000030517578,
        0.9994999766349792
      ],
      "min": [
        -1,
        -0.9997000098228455,
        -0.9994000196456909
      ],
      "type": "VEC3"
    },
    {
      "bufferView": 6,
      "componentType": 5126,
      "count": 5850,
      "max": [
        0.9886000156402588,
        0.995199978351593
      ],
      "min": [
        0.005900000222027302,
        0.014999999664723873
      ],
      "type": "VEC2"
    },
    {
      "bufferView": 7,
      "componentType": 5123,
      "count": 26757,
      "max": [
        5849
      ],
      "min": [
        0
      ],
      "type": "SCALAR"
    },
    {
      "bufferView": 8,
      "componentType": 5126,
      "count": 348,
      "max": [
        0.019267000257968903,
        -0.01989400014281273,
        0.061404999345541
      ],
      "min": [
        -0.006725000217556953,
        -0.046112000942230225,
        0.03615900129079819
      ],
      "type": "VEC3"
    },
    {
      "bufferView": 9,
      "componentType": 5126,
      "count": 348,
      "max": [
        0.9998999834060669,
        0.6730999946594238,
        0.7728999853134155
      ],
      "min": [
        -0.9998999834060669,
        -0.9549999833106995,
        -0.983299970626831
      ],
      "type": "VEC3"
    },
    {
      "bufferView": 10,
      "componentType": 5126,
      "count": 348,
      "max": [
        0.703000009059906,
        0.298799991607666
      ],
      "min": [
        0.4388999938964844,
        0.04280000180006027
      ],
      "type": "VEC2"
    },
    {
      "bufferView": 11,
      "componentType": 5123,
      "count": 1956,
      "max": [
        347
      ],
      "min": [
        0
      ],
      "type": "SCALAR"
    },
    {
      "bufferView": 12,
      "componentType": 5126,
      "count": 357,
      "max": [
        0.013944000005722046,
        0.0033919999841600657,
        0.09984099864959717
      ],
      "min": [
        0.0008120000129565597,
        -0.0213019996881485,
        0.07577700167894363
      ],
      "type": "VEC3"
    },
    {
      "bufferView": 13,
      "componentType": 5126,
      "count": 357,
      "max": [
        0.9994999766349792,
        0.9998000264167786,
        0.9941999912261963
      ],
      "min": [
        -0.17180000245571136,
        -0.9940000176429749,
        -0.9564999938011169
      ],
      "type": "VEC3"
    },
    {
      "bufferView": 14,
      "componentType": 5126,
      "count": 357,
      "max": [
        0.9749000072479248,
        0.6363000273704529
      ],
      "min": [
        0.8783000111579895,
        0.46389999985694885
      ],
      "type": "VEC2"
    },
    {
      "bufferView": 15,
      "componentType": 5123,
      "count": 1950,
      "max": [
        356
      ],
      "min": [
        0
      ],
      "type": "SCALAR"
    },
    {
      "bufferView": 16,
      "componentType": 5126,
      "count": 289,
      "max": [
        0.0009430000209249556,
        0.007002000231295824,
        0.06856799870729446
      ],
      "min": [
        -0.008314999751746655,
        -0.0013330000219866633,
        0.05939500033855438
      ],
      "type": "VEC3"
    },
    {
      "bufferView": 17,
      "componentType": 5126,
      "count": 289,
      "max": [
        0.9993000030517578,
        0.9884999990463257,
        0.7721999883651733
      ],
      "min": [
        -0.9993000030517578,
        -0.6342999935150146,
        -0.9979000091552734
      ],
      "type": "VEC3"
    },
    {
      "bufferView": 18,
      "componentType": 5126,
      "count": 289,
      "max": [
        0.11909999698400497,
        0.30880001187324524
      ],
      "min": [
        0.014100000262260437,
        0.013299999758601189
      ],
      "type": "VEC2"
    },
    {
      "bufferView": 19,
      "componentType": 5123,
      "count": 1056,
      "max": [
        288
      ],
      "min": [
        0
      ],
      "type": "SCALAR"
    },
    {
      "bufferView": 20,
      "componentType": 5126,
      "count": 289,
      "max": [
        0.01605300046503544,
        0.00381199992261827,
        0.06268200278282166
      ],
      "min": [
        0.006087000016123056,
        -0.003911000210791826,
        0.05384400114417076
      ],
      "type": "VEC3"
    },
    {
      "bufferView": 21,
      "componentType": 5126,
      "count": 289,
      "max": [
        0.9983999729156494,
        0.9986000061035156,
        0.7714999914169312
      ],
      "min": [
        -0.9983999729156494,
        -0.6337000131607056,
        -0.9861000180244446
      ],
      "type": "VEC3"
    },
    {
      "bufferView": 22,
      "componentType": 5126,
      "count": 289,
      "max": [
        0.9800000190734863,
        0.4343000054359436
      ],
      "min": [
        0.8944000005722046,
        0.34860000014305115
      ],
      "type": "VEC2"
    },
    {
      "bufferView": 23,
      "componentType": 5123,
      "count": 1248,
      "max": [
        288
      ],
      "min": [
        0
      ],
      "type": "SCALAR"
    },
    {
      "bufferView": 24,
      "componentType": 5126,
      "count": 293,
      "max": [
        0.022299999371170998,
        -0.004784000106155872,
        0.05221699923276901
      ],
      "min": [
        0.01233300007879734,
        -0.012507000006735325,
        0.04337900131940842
      ],
      "type": "VEC3"
    },
    {
      "bufferView": 25,
      "componentType": 5126,
      "count": 293,
      "max": [
        0.9983999729156494,
        0.9986000061035156,
        0.7717000246047974
      ],
      "min": [
        -0.9983999729156494,
        -0.6338000297546387,
        -0.9861000180244446
      ],
      "type": "VEC3"
    },
    {
      "bufferView": 26,
      "componentType": 5126,
      "count": 293,
      "max": [
        0.9800000190734863,
        0.3458000123500824
      ],
      "min": [
        0.20180000364780426,
        0.2003999948501587
      ],
      "type": "VEC2"
    },
    {
      "bufferView": 27,
      "componentType": 5123,
      "count": 1254,
      "max": [
        292
      ],
      "min": [
        0
      ],
      "type": "SCALAR"
    }
  ],
  "materials": [
    {
      "pbrMetallicRoughness": {
        "baseColorFactor": [
          0.5,
          0.5,
          0.5,
          1
        ],
        "metallicFactor": 0,
        "roughnessFactor": 1
      },
      "name": "stick"
    },
    {
      "pbrMetallicRoughness": {
        "baseColorFactor": [
          0.5,
          0.5,
          0.5,
          1
        ],
        "metallicFactor": 0,
        "roughnessFactor": 1
      },
      "name": "body"
    },
    {
      "pbrMetallicRoughness": {
        "baseColorFactor": [
          0.5,
          0.5,
          0.5,
          1
        ],
        "metallicFactor": 0,
        "roughnessFactor": 1
      },
      "name": "buttonTrigger"
    },
    {
      "pbrMetallicRoughness": {
        "baseColorFactor": [
          0.5,
          0.5,
          0.5,
          1
        ],
        "metallicFactor": 0,
        "roughnessFactor": 1
      },
      "name": "buttonHand"
    },
    {
      "pbrMetallicRoughness": {
        "baseColorFactor": [
          0.5,
          0.5,
          0.5,
          1
        ],
        "metallicFactor": 0,
        "roughnessFactor": 1
      },
      "name": "buttonMenu"
    },
    {
      "pbrMetallicRoughness": {
        "baseColorFactor": [
          0.5,
          0.5,
          0.5,
          1
        ],
        "metallicFactor": 0,
        "roughnessFactor": 1
      },
      "name": "buttonX"
    },
    {
      "pbrMetallicRoughness": {
        "baseColorFactor": [
          0.5,
          0.5,
          0.5,
          1
        ],
        "metallicFactor": 0,
        "roughnessFactor": 1
      },
      "name": "buttonY"
    }
  ],
  "meshes": [
    {
      "primitives": [
        {
          "mode": 4,
          "attributes": {
            "POSITION": 0,
            "NORMAL": 1,
            "TEXCOORD_0": 2
          },
          "indices": 3,
          "material": 0
        }
      ]
    },
    {
      "primitives": [
        {
          "mode": 4,
          "attributes": {
            "POSITION": 4,
            "NORMAL": 5,
            "TEXCOORD_0": 6
          },
          "indices": 7,
          "material": 1
        }
      ]
    },
    {
      "primitives": [
        {
          "mode": 4,
          "attributes": {
            "POSITION": 8,
            "NORMAL": 9,
            "TEXCOORD_0": 10
          },
          "indices": 11,
          "material": 2
        }
      ]
    },
    {
      "primitives": [
        {
          "mode": 4,
          "attributes": {
            "POSITION": 12,
            "NORMAL": 13,
            "TEXCOORD_0": 14
          },
          "indices": 15,
          "material": 3
        }
      ]
    },
    {
      "primitives": [
        {
          "mode": 4,
          "attributes": {
            "POSITION": 16,
            "NORMAL": 17,
            "TEXCOORD_0": 18
          },
          "indices": 19,
          "material": 4
        }
      ]
    },
    {
      "primitives": [
        {
          "mode": 4,
          "attributes": {
            "POSITION": 20,
            "NORMAL": 21,
            "TEXCOORD_0": 22
          },
          "indices": 23,
          "material": 5
        }
      ]
    },
    {
      "primitives": [
        {
          "mode": 4,
          "attributes": {
            "POSITION": 24,
            "NORMAL": 25,
            "TEXCOORD_0": 26
          },
          "indices": 27,
          "material": 6
        }
      ]
    }
  ]
}