{"accessors":[{"name":"buttonTrigger_oculus-touch-controller-right.006-Mesh_positions","componentType":5126,"count":348,"min":[-0.019267000257968903,-0.046112000942230225,0.03615900129079819],"max":[0.006725000217556953,-0.01989400014281273,0.061404999345541],"type":"VEC3","bufferView":0,"byteOffset":0},{"name":"buttonTrigger_oculus-touch-controller-right.006-Mesh_normals","componentType":5126,"count":348,"min":[-0.9998999834060669,-0.9549999833106995,-0.983299970626831],"max":[0.9998999834060669,0.6730999946594238,0.7728999853134155],"type":"VEC3","bufferView":0,"byteOffset":105048},{"name":"buttonTrigger_oculus-touch-controller-right.006-Mesh_texcoords","componentType":5126,"count":348,"min":[0.4388999938964844,0.04280000180006027],"max":[0.703000009059906,0.298799991607666],"type":"VEC2","bufferView":1,"byteOffset":0},{"name":"buttonTrigger_oculus-touch-controller-right.006-Mesh_0_indices","componentType":5123,"count":1956,"min":[0],"max":[347],"type":"SCALAR","bufferView":2,"byteOffset":0},{"name":"buttonHand_oculus-touch-controller-right.005-Mesh_positions","componentType":5126,"count":357,"min":[-0.013944000005722046,-0.0213019996881485,0.07577700167894363],"max":[-0.0008120000129565597,0.0033919999841600657,0.09984099864959717],"type":"VEC3","bufferView":0,"byteOffset":4176},{"name":"buttonHand_oculus-touch-controller-right.005-Mesh_normals","componentType":5126,"count":357,"min":[-0.9994999766349792,-0.9940000176429749,-0.9564999938011169],"max":[0.17180000245571136,0.9998000264167786,0.9941999912261963],"type":"VEC3","bufferView":0,"byteOffset":109224},{"name":"buttonHand_oculus-touch-controller-right.005-Mesh_texcoords","componentType":5126,"count":357,"min":[0.8783000111579895,0.46389999985694885],"max":[0.9749000072479248,0.6363000273704529],"type":"VEC2","bufferView":1,"byteOffset":2784},{"name":"buttonHand_oculus-touch-controller-right.005-Mesh_0_indices","componentType":5123,"count":1950,"min":[0],"max":[356],"type":"SCALAR","bufferView":2,"byteOffset":3912},{"name":"stick_oculus-touch-controller-right.004-Mesh_positions","componentType":5126,"count":1204,"min":[-0.0071829999797046185,-0.01740100048482418,0.037723999470472336],"max":[0.010157999582588673,0.002686999971047044,0.05786500126123428],"type":"VEC3","bufferView":0,"byteOffset":8460},{"name":"stick_oculus-touch-controller-right.004-Mesh_normals","componentType":5126,"count":1204,"min":[-1,-0.8138999938964844,-1],"max":[1,1,0.9111999869346619],"type":"VEC3","bufferView":0,"byteOffset":113508},{"name":"stick_oculus-touch-controller-right.004-Mesh_texcoords","componentType":5126,"count":1204,"min":[0.3215000033378601,0.01119999960064888],"max":[0.7114999890327454,0.7651000022888184],"type":"VEC2","bufferView":1,"byteOffset":5640},{"name":"stick_oculus-touch-controller-right.004-Mesh_0_indices","componentType":5123,"count":4800,"min":[0],"max":[1203],"type":"SCALAR","bufferView":2,"byteOffset":7812},{"name":"buttonB_oculus-touch-controller-right.003-Mesh_positions","componentType":5126,"count":353,"min":[-0.022415999323129654,-0.014201999641954899,0.04337900131940842],"max":[-0.012206999585032463,-0.004784000106155872,0.05363599956035614],"type":"VEC3","bufferView":0,"byteOffset":22908},{"name":"buttonB_oculus-touch-controller-right.003-Mesh_normals","componentType":5126,"count":353,"min":[-0.9993000030517578,-0.6342999935150146,-0.9861000180244446],"max":[0.9993000030517578,0.9986000061035156,0.7721999883651733],"type":"VEC3","bufferView":0,"byteOffset":127956},{"name":"buttonB_oculus-touch-controller-right.003-Mesh_texcoords","componentType":5126,"count":353,"min":[0.16899999976158142,0.17010000348091125],"max":[0.40389999747276306,0.2558000087738037],"type":"VEC2","bufferView":1,"byteOffset":15272},{"name":"buttonB_oculus-touch-controller-right.003-Mesh_0_indices","componentType":5123,"count":1440,"min":[0],"max":[352],"type":"SCALAR","bufferView":2,"byteOffset":17412},{"name":"buttonA_oculus-touch-controller-right.002-Mesh_positions","componentType":5126,"count":353,"min":[-0.016196999698877335,-0.0055959997698664665,0.05384400114417076],"max":[-0.005987999960780144,0.00381199992261827,0.06411299854516983],"type":"VEC3","bufferView":0,"byteOffset":27144},{"name":"buttonA_oculus-touch-controller-right.002-Mesh_normals","componentType":5126,"count":353,"min":[-0.9993000030517578,-0.6342999935150146,-0.9861000180244446],"max":[0.9993000030517578,0.9986000061035156,0.7723000049591064],"type":"VEC3","bufferView":0,"byteOffset":132192},{"name":"buttonA_oculus-touch-controller-right.002-Mesh_texcoords","componentType":5126,"count":353,"min":[0.14059999585151672,0.23430000245571136],"max":[0.40389999747276306,0.3443000018596649],"type":"VEC2","bufferView":1,"byteOffset":18096},{"name":"buttonA_oculus-touch-controller-right.002-Mesh_0_indices","componentType":5123,"count":1440,"min":[0],"max":[352],"type":"SCALAR","bufferView":2,"byteOffset":20292},{"name":"buttonHome_oculus-touch-controller-right.001-Mesh_positions","componentType":5126,"count":289,"min":[-0.0009410000056959689,-0.00133200001437217,0.05939599871635437],"max":[0.008313000202178955,0.007000999990850687,0.06856700032949448],"type":"VEC3","bufferView":0,"byteOffset":31380},{"name":"buttonHome_oculus-touch-controller-right.001-Mesh_normals","componentType":5126,"count":289,"min":[-0.9993000030517578,-0.6342999935150146,-0.9979000091552734],"max":[0.9993000030517578,0.9884999990463257,0.7720999717712402],"type":"VEC3","bufferView":0,"byteOffset":136428},{"name":"buttonHome_oculus-touch-controller-right.001-Mesh_texcoords","componentType":5126,"count":289,"min":[0.07320000231266022,0.25839999318122864],"max":[0.4945000112056732,0.3463999927043915],"type":"VEC2","bufferView":1,"byteOffset":20920},{"name":"buttonHome_oculus-touch-controller-right.001-Mesh_0_indices","componentType":5123,"count":1056,"min":[0],"max":[288],"type":"SCALAR","bufferView":2,"byteOffset":23172},{"name":"body_oculus-touch-controller-right-Mesh_positions","componentType":5126,"count":5850,"min":[-0.044780001044273376,-0.08010700345039368,0.023972999304533005],"max":[0.06481499969959259,0.013945000246167183,0.13857899606227875],"type":"VEC3","bufferView":0,"byteOffset":34848},{"name":"body_oculus-touch-controller-right-Mesh_normals","componentType":5126,"count":5850,"min":[-1,-0.9997000098228455,-0.9994000196456909],"max":[1,0.9993000030517578,0.9994999766349792],"type":"VEC3","bufferView":0,"byteOffset":139896},{"name":"body_oculus-touch-controller-right-Mesh_texcoords","componentType":5126,"count":5850,"min":[0.005900000222027302,0.014999999664723873],"max":[0.9886000156402588,0.995199978351593],"type":"VEC2","bufferView":1,"byteOffset":23232},{"name":"body_oculus-touch-controller-right-Mesh_0_indices","componentType":5123,"count":26757,"min":[0],"max":[5849],"type":"SCALAR","bufferView":2,"byteOffset":25284}],"asset":{"generator":"obj2gltf","version":"2.0"},"buffers":[{"name":"input","byteLength":358928,"uri":"data:application/octet-stream;base64,"}],"bufferViews":[{"name":"bufferView_0","buffer":0,"byteLength":210096,"byteOffset":0,"byteStride":12,"target":34962},{"name":"bufferView_1","buffer":0,"byteLength":70032,"byteOffset":210096,"byteStride":8,"target":34962},{"name":"bufferView_2","buffer":0,"byteLength":78800,"byteOffset":280128,"target":34963}],"materials":[{"name":"buttonTrigger","pbrMetallicRoughness":{"baseColorFactor":[0.5,0.5,0.5,1],"metallicFactor":0,"roughnessFactor":1},"emissiveFactor":[0,0,0],"alphaMode":"OPAQUE","doubleSided":false},{"name":"buttonHand","pbrMetallicRoughness":{"baseColorFactor":[0.5,0.5,0.5,1],"metallicFactor":0,"roughnessFactor":1},"emissiveFactor":[0,0,0],"alphaMode":"OPAQUE","doubleSided":false},{"name":"stick","pbrMetallicRoughness":{"baseColorFactor":[0.5,0.5,0.5,1],"metallicFactor":0,"roughnessFactor":1},"emissiveFactor":[0,0,0],"alphaMode":"OPAQUE","doubleSided":false},{"name":"buttonB","pbrMetallicRoughness":{"baseColorFactor":[0.5,0.5,0.5,1],"metallicFactor":0,"roughnessFactor":1},"emissiveFactor":[0,0,0],"alphaMode":"OPAQUE","doubleSided":false},{"name":"buttonA","pbrMetallicRoughness":{"baseColorFactor":[0.5,0.5,0.5,1],"metallicFactor":0,"roughnessFactor":1},"emissiveFactor":[0,0,0],"alphaMode":"OPAQUE","doubleSided":false},{"name":"buttonHome","pbrMetallicRoughness":{"baseColorFactor":[0.5,0.5,0.5,1],"metallicFactor":0,"roughnessFactor":1},"emissiveFactor":[0,0,0],"alphaMode":"OPAQUE","doubleSided":false},{"name":"body","pbrMetallicRoughness":{"baseColorFactor":[0.5,0.5,0.5,1],"metallicFactor":0,"roughnessFactor":1},"emissiveFactor":[0,0,0],"alphaMode":"OPAQUE","doubleSided":false}],"meshes":[{"name":"buttonTrigger_oculus-touch-controller-right.006-Mesh","primitives":[{"attributes":{"POSITION":0,"NORMAL":1,"TEXCOORD_0":2},"indices":3,"material":0,"mode":4}]},{"name":"buttonHand_oculus-touch-controller-right.005-Mesh","primitives":[{"attributes":{"POSITION":4,"NORMAL":5,"TEXCOORD_0":6},"indices":7,"material":1,"mode":4}]},{"name":"stick_oculus-touch-controller-right.004-Mesh","primitives":[{"attributes":{"POSITION":8,"NORMAL":9,"TEXCOORD_0":10},"indices":11,"material":2,"mode":4}]},{"name":"buttonB_oculus-touch-controller-right.003-Mesh","primitives":[{"attributes":{"POSITION":12,"NORMAL":13,"TEXCOORD_0":14},"indices":15,"material":3,"mode":4}]},{"name":"buttonA_oculus-touch-controller-right.002-Mesh","primitives":[{"attributes":{"POSITION":16,"NORMAL":17,"TEXCOORD_0":18},"indices":19,"material":4,"mode":4}]},{"name":"buttonHome_oculus-touch-controller-right.001-Mesh","primitives":[{"attributes":{"POSITION":20,"NORMAL":21,"TEXCOORD_0":22},"indices":23,"material":5,"mode":4}]},{"name":"body_oculus-touch-controller-right-Mesh","primitives":[{"attributes":{"POSITION":24,"NORMAL":25,"TEXCOORD_0":26},"indices":27,"material":6,"mode":4}]}],"nodes":[{"name":"buttonTrigger_oculus-touch-controller-right.006","mesh":0},{"name":"buttonHand_oculus-touch-controller-right.005","mesh":1},{"name":"stick_oculus-touch-controller-right.004","mesh":2},{"name":"buttonB_oculus-touch-controller-right.003","mesh":3},{"name":"buttonA_oculus-touch-controller-right.002","mesh":4},{"name":"buttonHome_oculus-touch-controller-right.001","mesh":5},{"name":"body_oculus-touch-controller-right","mesh":6}],"scene":0,"scenes":[{"nodes":[0,1,2,3,4,5,6]}]}
